<svg width="527" height="97" viewBox="0 0 527 97" fill="none" xmlns="http://www.w3.org/2000/svg">
<path d="M17.6864 54.6739C14.9293 54.6739 12.7882 54.4098 11.263 53.8816C9.79645 53.2946 8.76987 52.2088 8.18326 50.624C7.65531 49.0393 7.39133 46.7502 7.39133 43.7568V16.904H0V11.0052H7.39133V0H14.7827V11.0052H23.2299V16.904H14.7827V42.5242C14.7827 44.7546 14.988 46.2513 15.3986 47.0143C15.8679 47.7773 17.1584 48.1588 19.2703 48.1588H23.2299V54.6739H17.6864Z" fill="#E0DACC"/>
<path d="M46.743 55.7304C43.3407 55.7304 40.6129 55.0261 38.5598 53.6174C36.5066 52.1501 35.0107 50.1545 34.0722 47.6306C33.1922 45.048 32.7523 42.1133 32.7523 38.8264V10.9172H40.1436V37.0656C40.1436 40.2938 40.5249 42.7883 41.2875 44.5491C42.0501 46.31 43.106 47.5425 44.4552 48.2469C45.8631 48.8925 47.4763 49.2153 49.2948 49.2153C52.7558 49.2153 55.4542 48.0121 57.39 45.6056C59.3845 43.1405 60.3818 39.5894 60.3818 34.9526V10.9172H67.7731V54.6739H62.2296L60.3818 48.3349C59.1499 50.4479 57.478 52.2088 55.3662 53.6174C53.2544 55.0261 50.38 55.7304 46.743 55.7304Z" fill="#E0DACC"/>
<path d="M98.23 55.7304C95.7076 55.7304 93.2145 55.2902 90.7507 54.4098C88.2869 53.5294 86.0285 52.1794 83.9753 50.3599C81.9808 48.4817 80.3676 46.1045 79.1358 43.2285C77.9039 40.3525 77.2879 36.9482 77.2879 33.0157C77.2879 29.0831 77.9039 25.6788 79.1358 22.8028C80.3676 19.9268 81.9808 17.579 83.9753 15.7595C86.0285 13.8813 88.2869 12.5019 90.7507 11.6215C93.2145 10.7411 95.7076 10.3009 98.23 10.3009C100.752 10.3009 103.246 10.7411 105.709 11.6215C108.232 12.5019 110.49 13.8813 112.485 15.7595C114.538 17.579 116.151 19.9268 117.324 22.8028C118.556 25.6788 119.172 29.0831 119.172 33.0157C119.172 36.9482 118.556 40.3525 117.324 43.2285C116.151 46.1045 114.538 48.4817 112.485 50.3599C110.49 52.1794 108.232 53.5294 105.709 54.4098C103.246 55.2902 100.752 55.7304 98.23 55.7304ZM98.23 49.2153C100.342 49.2153 102.395 48.6577 104.389 47.5426C106.384 46.3687 108.026 44.6078 109.317 42.26C110.608 39.8536 111.253 36.7721 111.253 33.0157C111.253 29.2592 110.608 26.2071 109.317 23.8593C108.026 21.4528 106.384 19.692 104.389 18.5768C102.395 17.4029 100.342 16.816 98.23 16.816C96.1769 16.816 94.1237 17.4029 92.0706 18.5768C90.0761 19.692 88.4336 21.4528 87.143 23.8593C85.8525 26.2071 85.2072 29.2592 85.2072 33.0157C85.2072 36.7721 85.8525 39.8536 87.143 42.26C88.4336 44.6078 90.0761 46.3687 92.0706 47.5426C94.1237 48.6577 96.1769 49.2153 98.23 49.2153Z" fill="#E0DACC"/>
<path d="M128.654 54.6739V11.0052H134.109L136.045 17.6084C137.277 15.554 138.949 13.8226 141.061 12.4139C143.231 11.0052 145.93 10.3009 149.156 10.3009C152.5 10.3009 155.198 10.9759 157.251 12.3258C159.305 13.6758 160.8 15.554 161.739 17.9605C163.499 15.2606 165.611 13.3237 168.074 12.1498C170.597 10.9172 173.383 10.3009 176.434 10.3009C181.479 10.3009 185.086 11.8563 187.257 14.9671C189.427 18.0192 190.512 22.0398 190.512 27.0288V54.6739H183.121V29.2299C183.121 26.9995 182.886 24.9452 182.417 23.0669C182.006 21.13 181.127 19.5746 179.777 18.4007C178.487 17.2268 176.492 16.6399 173.794 16.6399C170.626 16.6399 168.074 17.8725 166.139 20.3376C164.261 22.7441 163.323 26.2951 163.323 30.9907V54.6739H155.931V29.2299C155.931 26.9995 155.697 24.9452 155.228 23.0669C154.817 21.13 153.937 19.5746 152.588 18.4007C151.297 17.2268 149.303 16.6399 146.604 16.6399C143.437 16.6399 140.885 17.8725 138.949 20.3376C137.013 22.7441 136.045 26.2951 136.045 30.9907V54.6739H128.654Z" fill="#E0DACC"/>
<path d="M214.87 55.7304C212.113 55.7304 209.591 55.2315 207.303 54.2337C205.015 53.2359 203.197 51.7979 201.848 49.9197C200.498 48.0415 199.824 45.7817 199.824 43.1405C199.824 39.6775 201.026 36.9482 203.431 34.9526C205.895 32.957 209.327 31.4309 213.726 30.3744C218.185 29.2592 223.376 28.3788 229.301 27.7332C229.418 24.0354 228.685 21.1887 227.101 19.1931C225.517 17.1975 222.966 16.1997 219.446 16.1997C216.806 16.1997 214.636 16.816 212.935 18.0486C211.292 19.2225 210.236 20.8659 209.767 22.9789L202.639 20.8659C203.813 17.5203 205.895 14.9378 208.887 13.1182C211.937 11.24 215.428 10.3009 219.358 10.3009C225.4 10.3009 229.8 11.7389 232.557 14.6149C235.372 17.4323 236.78 21.8931 236.78 27.9973V38.2101C236.78 41.8492 236.927 44.9893 237.22 47.6306C237.514 50.2718 237.866 52.6196 238.276 54.6739H231.501L229.741 48.6871C228.45 50.8588 226.603 52.5903 224.197 53.8816C221.792 55.1141 218.683 55.7304 214.87 55.7304ZM216.454 49.8316C218.742 49.8316 220.912 49.4208 222.966 48.599C225.019 47.7773 226.691 46.398 227.981 44.4611C229.272 42.4655 229.917 39.7655 229.917 36.3612V33.632C225.459 34.1015 221.587 34.6885 218.302 35.3928C215.017 36.0384 212.465 36.9775 210.647 38.2101C208.887 39.384 208.007 40.9688 208.007 42.9644C208.007 45.0187 208.74 46.6915 210.207 47.9828C211.732 49.2153 213.814 49.8316 216.454 49.8316Z" fill="#E0DACC"/>
<path d="M263.826 55.7304C261.304 55.7304 258.811 55.3489 256.347 54.5859C253.942 53.7642 251.771 52.5609 249.835 50.9762C247.958 49.3327 246.521 47.2784 245.524 44.8133L252.651 42.172C253.296 44.7546 254.704 46.6328 256.875 47.8067C259.104 48.9219 261.421 49.4795 263.826 49.4795C265.586 49.4795 267.229 49.2153 268.754 48.6871C270.338 48.1588 271.628 47.3958 272.625 46.398C273.623 45.4002 274.121 44.2557 274.121 42.9644C274.121 40.5579 273.153 38.8558 271.218 37.858C269.34 36.8601 267.082 36.0971 264.442 35.5689L258.371 34.3363C256.259 33.8667 254.294 33.2211 252.475 32.3994C250.657 31.5189 249.19 30.2864 248.076 28.7016C246.961 27.1169 246.404 25.0039 246.404 22.3626C246.404 19.7214 247.225 17.5203 248.868 15.7595C250.51 13.9399 252.593 12.5606 255.115 11.6215C257.696 10.6824 260.395 10.2128 263.21 10.2128C266.671 10.2128 269.927 10.9465 272.977 12.4139C276.086 13.8226 278.286 16.0529 279.577 19.1051L272.625 21.6583C271.863 19.8974 270.514 18.6062 268.578 17.7844C266.701 16.904 264.735 16.4638 262.682 16.4638C260.453 16.4638 258.429 16.9627 256.611 17.9605C254.792 18.9583 253.883 20.3963 253.883 22.2746C253.883 24.1528 254.646 25.5321 256.171 26.4125C257.755 27.2343 259.691 27.8799 261.978 28.3494L267.698 29.494C270.044 29.9635 272.273 30.6385 274.385 31.5189C276.497 32.3994 278.228 33.72 279.577 35.4808C280.926 37.183 281.601 39.5894 281.601 42.7003C281.601 45.4589 280.75 47.8067 279.049 49.7436C277.348 51.6805 275.148 53.1772 272.449 54.2337C269.751 55.2315 266.877 55.7304 263.826 55.7304Z" fill="#E0DACC"/>
<path d="M183.133 95.9435V37.1316H190.525V71.9081L208.123 52.2748H217.01L200.556 70.3233L219.21 95.9435H210.147L195.628 75.7819L190.525 81.3286V95.9435H183.133Z" fill="#E0DACC"/>
<path d="M243.108 97C240.585 97 238.092 96.5598 235.628 95.6794C233.164 94.799 230.906 93.449 228.853 91.6294C226.858 89.7512 225.245 87.3741 224.013 84.4981C222.781 81.622 222.165 78.2178 222.165 74.2852C222.165 70.3527 222.781 66.9484 224.013 64.0724C225.245 61.1964 226.858 58.8486 228.853 57.029C230.906 55.1508 233.164 53.7715 235.628 52.8911C238.092 52.0107 240.585 51.5705 243.108 51.5705C245.63 51.5705 248.123 52.0107 250.587 52.8911C253.109 53.7715 255.368 55.1508 257.362 57.029C259.415 58.8486 261.029 61.1964 262.202 64.0724C263.434 66.9484 264.05 70.3527 264.05 74.2852C264.05 78.2178 263.434 81.622 262.202 84.4981C261.029 87.3741 259.415 89.7512 257.362 91.6294C255.368 93.449 253.109 94.799 250.587 95.6794C248.123 96.5598 245.63 97 243.108 97ZM243.108 90.4849C245.219 90.4849 247.272 89.9273 249.267 88.8121C251.261 87.6382 252.904 85.8774 254.195 83.5296C255.485 81.1231 256.13 78.0417 256.13 74.2852C256.13 70.5288 255.485 67.4767 254.195 65.1289C252.904 62.7224 251.261 60.9616 249.267 59.8464C247.272 58.6725 245.219 58.0855 243.108 58.0855C241.054 58.0855 239.001 58.6725 236.948 59.8464C234.954 60.9616 233.311 62.7224 232.021 65.1289C230.73 67.4767 230.085 70.5288 230.085 74.2852C230.085 78.0417 230.73 81.1231 232.021 83.5296C233.311 85.8774 234.954 87.6382 236.948 88.8121C239.001 89.9273 241.054 90.4849 243.108 90.4849Z" fill="#E0DACC"/>
<path d="M273.531 95.9435V66.5376L273.5 48L281 40.5L280.923 58.8779C282.155 56.8236 283.885 55.0921 286.114 53.6835C288.343 52.2748 291.306 51.5705 295.001 51.5705C300.281 51.5705 304.006 53.1259 306.176 56.2367C308.347 59.2888 309.432 63.3094 309.432 68.2984V95.9435H302.041V70.4994C302.041 68.269 301.836 66.2147 301.425 64.3365C301.014 62.3996 300.105 60.8442 298.697 59.6703C297.348 58.4964 295.265 57.9095 292.45 57.9095C288.871 57.9095 286.056 59.1421 284.002 61.6072C281.949 64.0137 280.923 67.5647 280.923 72.2603V95.9435H273.531Z" fill="#E0DACC"/>
<path d="M330.981 95.9435L315.407 52.2748H323.414L334.853 86.2589L346.204 52.2748H354.211L338.637 95.9435H330.981Z" fill="#E0DACC"/>
<path d="M371.005 97C368.248 97 365.725 96.5011 363.437 95.5033C361.15 94.5055 359.331 93.0675 357.982 91.1892C356.633 89.311 355.958 87.0513 355.958 84.41C355.958 80.9471 357.161 78.2178 359.566 76.2222C362.029 74.2265 365.461 72.7005 369.861 71.644C374.319 70.5288 379.51 69.6484 385.435 69.0027C385.553 65.305 384.819 62.4583 383.236 60.4627C381.652 58.4671 379.1 57.4693 375.58 57.4693C372.94 57.4693 370.77 58.0855 369.069 59.3181C367.426 60.492 366.37 62.1355 365.901 64.2485L358.774 62.1355C359.947 58.7899 362.029 56.2073 365.021 54.3878C368.072 52.5096 371.562 51.5705 375.492 51.5705C381.534 51.5705 385.934 53.0085 388.691 55.8845C391.507 58.7018 392.915 63.1626 392.915 69.2669V79.4797C392.915 83.1188 393.061 86.2589 393.355 88.9002C393.648 91.5414 394 93.8892 394.41 95.9435H387.635L385.875 89.9567C384.585 92.1284 382.737 93.8598 380.332 95.1511C377.927 96.3837 374.818 97 371.005 97ZM372.588 91.1012C374.876 91.1012 377.047 90.6903 379.1 89.8686C381.153 89.0469 382.825 87.6676 384.115 85.7307C385.406 83.735 386.051 81.0351 386.051 77.6308V74.9015C381.593 75.3711 377.721 75.958 374.436 76.6624C371.151 77.308 368.599 78.2471 366.781 79.4797C365.021 80.6536 364.141 82.2383 364.141 84.2339C364.141 86.2883 364.875 87.961 366.341 89.2523C367.866 90.4849 369.949 91.1012 372.588 91.1012Z" fill="#E0DACC"/>
<path d="M405.09 95.9435V37.1316H412.481V71.9081L430.08 52.2748H438.967L422.512 70.3233L441.167 95.9435H432.103L417.585 75.7819L412.481 81.3286V95.9435H405.09Z" fill="#E0DACC"/>
<path d="M448.227 95.9435V37.1316H455.618V71.9081L473.216 52.2748H482.103L465.649 70.3233L484.303 95.9435H475.24L460.721 75.7819L455.618 81.3286V95.9435H448.227Z" fill="#E0DACC"/>
<path d="M503.594 97C500.837 97 498.315 96.5011 496.027 95.5033C493.739 94.5055 491.921 93.0675 490.571 91.1892C489.222 89.311 488.548 87.0513 488.548 84.41C488.548 80.9471 489.75 78.2178 492.155 76.2222C494.619 74.2265 498.051 72.7005 502.45 71.644C506.909 70.5288 512.1 69.6484 518.025 69.0027C518.142 65.305 517.409 62.4583 515.825 60.4627C514.241 58.4671 511.689 57.4693 508.17 57.4693C505.53 57.4693 503.359 58.0855 501.658 59.3181C500.016 60.492 498.96 62.1355 498.491 64.2485L491.363 62.1355C492.536 58.7899 494.619 56.2073 497.611 54.3878C500.661 52.5096 504.151 51.5705 508.082 51.5705C514.124 51.5705 518.523 53.0085 521.281 55.8845C524.096 58.7018 525.504 63.1626 525.504 69.2669V79.4797C525.504 83.1188 525.651 86.2589 525.944 88.9002C526.237 91.5414 526.589 93.8892 527 95.9435H520.225L518.465 89.9567C517.174 92.1284 515.326 93.8598 512.921 95.1511C510.516 96.3837 507.407 97 503.594 97ZM505.178 91.1012C507.466 91.1012 509.636 90.6903 511.689 89.8686C513.743 89.0469 515.414 87.6676 516.705 85.7307C517.995 83.735 518.641 81.0351 518.641 77.6308V74.9015C514.183 75.3711 510.311 75.958 507.026 76.6624C503.741 77.308 501.189 78.2471 499.371 79.4797C497.611 80.6536 496.731 82.2383 496.731 84.2339C496.731 86.2883 497.464 87.961 498.931 89.2523C500.456 90.4849 502.538 91.1012 505.178 91.1012Z" fill="#E0DACC"/>
</svg>
